# Blender v2.76 (sub 0) OBJ File: ''
# www.blender.org
mtllib plane_subdivide_test.mtl
o Cube
v -0.500000 0.000000 0.500000
v -0.250000 0.000000 0.500000
v 0.000000 0.000000 0.500000
v 0.250000 0.000000 0.500000
v 0.500000 0.000000 0.500000
v -0.500000 0.000000 0.250000
v -0.250000 0.000000 0.250000
v 0.000000 0.000000 0.250000
v 0.250000 0.000000 0.250000
v 0.500000 0.000000 0.250000
v -0.500000 0.000000 0.000000
v -0.250000 0.000000 0.000000
v 0.000000 0.000000 0.000000
v 0.250000 0.000000 0.000000
v 0.500000 0.000000 0.000000
v -0.500000 0.000000 -0.250000
v -0.250000 0.000000 -0.250000
v 0.000000 0.000000 -0.250000
v 0.250000 0.000000 -0.250000
v 0.500000 0.000000 -0.250000
v -0.500000 0.000000 -0.500000
v -0.250000 0.000000 -0.500000
v 0.000000 0.000000 -0.500000
v 0.250000 0.000000 -0.500000
v 0.500000 0.000000 -0.500000
vt 0.250050 0.000100
vt 0.250050 0.250050
vt 0.000100 0.250050
vt 0.500000 0.000100
vt 0.500000 0.250050
vt 0.749950 0.000100
vt 0.749950 0.250050
vt 0.999900 0.000100
vt 0.999900 0.250050
vt 0.250050 0.500000
vt 0.000100 0.500000
vt 0.500000 0.500000
vt 0.749950 0.500000
vt 0.999900 0.500000
vt 0.250050 0.749950
vt 0.000100 0.749950
vt 0.500000 0.749950
vt 0.749950 0.749950
vt 0.999900 0.749950
vt 0.250050 0.999900
vt 0.000100 0.999900
vt 0.500000 0.999900
vt 0.749950 0.999900
vt 0.999900 0.999900
vt 0.000100 0.000100
vn 0.000000 1.000000 0.000000
usemtl Material
s off
f 2/1/1 7/2/1 6/3/1
f 3/4/1 8/5/1 7/2/1
f 4/6/1 9/7/1 8/5/1
f 5/8/1 10/9/1 9/7/1
f 7/2/1 12/10/1 11/11/1
f 8/5/1 13/12/1 12/10/1
f 9/7/1 14/13/1 13/12/1
f 10/9/1 15/14/1 14/13/1
f 12/10/1 17/15/1 16/16/1
f 13/12/1 18/17/1 17/15/1
f 14/13/1 19/18/1 18/17/1
f 15/14/1 20/19/1 19/18/1
f 17/15/1 22/20/1 21/21/1
f 18/17/1 23/22/1 22/20/1
f 19/18/1 24/23/1 23/22/1
f 20/19/1 25/24/1 24/23/1
f 1/25/1 2/1/1 6/3/1
f 2/1/1 3/4/1 7/2/1
f 3/4/1 4/6/1 8/5/1
f 4/6/1 5/8/1 9/7/1
f 6/3/1 7/2/1 11/11/1
f 7/2/1 8/5/1 12/10/1
f 8/5/1 9/7/1 13/12/1
f 9/7/1 10/9/1 14/13/1
f 11/11/1 12/10/1 16/16/1
f 12/10/1 13/12/1 17/15/1
f 13/12/1 14/13/1 18/17/1
f 14/13/1 15/14/1 19/18/1
f 16/16/1 17/15/1 21/21/1
f 17/15/1 18/17/1 22/20/1
f 18/17/1 19/18/1 23/22/1
f 19/18/1 20/19/1 24/23/1
